<svg width="138" height="30" viewBox="0 0 138 30" fill="none" xmlns="http://www.w3.org/2000/svg">
<path d="M22.3921 21.8878C22.6801 22.5838 23.0881 23.2558 23.6161 23.9038C24.1441 24.5278 24.6001 24.9958 24.9841 25.3078C24.4081 26.5078 23.7001 27.3838 22.8601 27.9358C22.1641 28.3918 21.4201 28.6558 20.6281 28.7278C20.1961 28.7758 19.7041 28.7398 19.1521 28.6198C18.6001 28.4998 18.0241 28.1638 17.4241 27.6118C16.8481 27.0358 16.2721 26.1238 15.6961 24.8758C15.5281 24.4678 15.1561 24.1798 14.5801 24.0118C14.0041 23.8438 13.3921 23.7478 12.7441 23.7238C12.0961 23.6758 11.5681 23.6518 11.1601 23.6518C10.7521 23.6518 10.2481 23.6638 9.6481 23.6878C9.0721 23.7118 8.5441 23.8078 8.0641 23.9758C7.5841 24.1438 7.2961 24.4438 7.2001 24.8758C7.1041 25.2598 7.0921 25.6558 7.1641 26.0638C7.2361 26.4718 7.3921 26.7358 7.6321 26.8558C7.2241 27.2398 6.8161 27.5758 6.4081 27.8638C6.0241 28.1518 5.6281 28.3798 5.2201 28.5478C4.7161 28.7638 4.1881 28.8718 3.6361 28.8718C3.1081 28.8718 2.5081 28.7518 1.8361 28.5118C1.5241 28.3918 1.2001 28.1758 0.864102 27.8638C0.528102 27.5518 0.300102 27.1198 0.180102 26.5678C0.0601016 26.0158 0.156102 25.3198 0.468102 24.4798C0.492102 24.4078 0.612102 24.0238 0.828102 23.3278C1.0441 22.6318 1.3201 21.7198 1.6561 20.5918C2.0161 19.4398 2.4001 18.1678 2.8081 16.7758C3.2401 15.3838 3.6721 13.9558 4.1041 12.4918C4.5601 11.0038 4.9921 9.57576 5.4001 8.20776C5.8321 6.83976 6.2161 5.60376 6.5521 4.49976C6.8881 3.39576 7.1521 2.51976 7.3441 1.87176C7.5361 1.22376 7.6321 0.899761 7.6321 0.899761C7.8481 0.779761 8.2441 0.635761 8.8201 0.46776C9.4201 0.275761 10.0561 0.167761 10.7281 0.14376C11.4721 0.0957603 12.1921 0.191761 12.8881 0.43176C13.6081 0.67176 14.1601 1.15176 14.5441 1.87176C14.7121 2.15976 14.9641 2.71176 15.3001 3.52776C15.6361 4.34376 16.0321 5.32776 16.4881 6.47976C16.9441 7.63176 17.4241 8.86776 17.9281 10.1878C18.4321 11.4838 18.9241 12.7798 19.4041 14.0758C19.9081 15.3478 20.3641 16.5358 20.7721 17.6398C21.1801 18.7438 21.5281 19.6798 21.8161 20.4478C22.1041 21.1918 22.2961 21.6718 22.3921 21.8878ZM11.0521 17.2438C11.6761 17.1958 12.0361 17.0158 12.1321 16.7038C12.2521 16.3918 12.3241 16.0318 12.3481 15.6238C12.3481 15.3598 12.3001 15.0358 12.2041 14.6518C12.1321 14.2678 12.0121 13.9318 11.8441 13.6438C11.7001 13.3318 11.5081 13.1758 11.2681 13.1758C10.9321 13.1758 10.5601 13.4158 10.1521 13.8958C9.7681 14.3518 9.5521 14.8198 9.5041 15.2998C9.4321 15.7558 9.4681 16.1998 9.6121 16.6318C9.7801 17.0638 10.2601 17.2678 11.0521 17.2438ZM47.9783 14.5798C48.4343 14.9638 48.8063 15.3598 49.0943 15.7678C49.3823 16.1518 49.5863 16.6798 49.7063 17.3518C49.8263 17.9998 49.8623 18.9118 49.8143 20.0878C49.7903 20.6638 49.6823 21.3358 49.4903 22.1038C49.3223 22.8718 49.0223 23.6518 48.5903 24.4438C48.1583 25.2358 47.5583 25.9678 46.7903 26.6398C46.0223 27.3118 45.0503 27.8638 43.8743 28.2958C42.6983 28.7278 41.2583 28.9438 39.5543 28.9438H38.8343C37.9943 28.8958 36.9863 28.8718 35.8103 28.8718C34.6343 28.8958 33.5423 28.9078 32.5343 28.9078C31.9343 28.9558 31.2983 28.9798 30.6263 28.9798C29.9543 28.9798 29.3423 28.9438 28.7903 28.8718C28.2383 28.7998 27.8303 28.6918 27.5663 28.5478C27.7343 28.2118 27.8783 27.7078 27.9983 27.0358C28.1423 26.3398 28.2503 25.5838 28.3223 24.7678C28.3943 23.9518 28.4183 23.1718 28.3943 22.4278C28.3943 22.2358 28.3823 21.7558 28.3583 20.9878C28.3583 20.1958 28.3463 19.2238 28.3223 18.0718C28.3223 16.8958 28.3103 15.6238 28.2863 14.2558C28.2863 12.8878 28.2863 11.5198 28.2863 10.1518C28.2863 8.73576 28.2743 7.52376 28.2503 6.51576C28.2263 5.50776 27.9983 4.88376 27.5663 4.64376C27.1583 4.37976 26.7983 3.86376 26.4863 3.09576C26.1983 2.30376 26.0543 1.28376 26.0543 0.0357611C26.1503 0.0597608 26.4503 0.0957603 26.9543 0.14376C27.4583 0.167761 27.9383 0.203761 28.3943 0.25176C28.9463 0.27576 29.7263 0.29976 30.7343 0.32376C31.7663 0.32376 32.8343 0.32376 33.9383 0.32376C34.7783 0.32376 35.6183 0.32376 36.4583 0.32376C37.2983 0.32376 38.0543 0.33576 38.7263 0.359761C39.4223 0.359761 39.9263 0.359761 40.2383 0.359761C41.7263 0.359761 43.0343 0.635761 44.1623 1.18776C45.2903 1.71576 46.1783 2.42376 46.8263 3.31176C47.4743 4.19976 47.7983 5.17176 47.7983 6.22776C47.7983 7.28376 47.6303 8.20776 47.2943 8.99976C46.9823 9.79176 46.6703 10.4638 46.3583 11.0158C46.0463 11.5438 45.9023 11.9638 45.9263 12.2758C45.9983 12.7798 46.2263 13.1758 46.6103 13.4638C47.0183 13.7518 47.4743 14.1238 47.9783 14.5798ZM40.7063 8.27976C40.7543 7.96776 40.6103 7.67976 40.2743 7.41576C39.9623 7.12776 39.5303 6.89976 38.9783 6.73176C38.4503 6.53976 37.8863 6.44376 37.2863 6.44376C36.6863 6.44376 36.2303 6.59976 35.9183 6.91176C35.6063 7.22376 35.4023 7.59576 35.3063 8.02776C35.2103 8.43576 35.1863 8.78376 35.2343 9.07176C35.3063 9.52776 35.6423 9.85176 36.2423 10.0438C36.8663 10.2118 37.4543 10.3078 38.0063 10.3318C38.5583 10.3558 39.1223 10.2118 39.6983 9.89976C40.2743 9.56376 40.6103 9.02376 40.7063 8.27976ZM39.2663 21.9598C40.1303 21.9358 40.7783 21.8038 41.2103 21.5638C41.6663 21.3238 41.9783 21.0118 42.1463 20.6278C42.3143 20.2438 42.4223 19.8598 42.4703 19.4758C42.5423 18.9478 42.3863 18.4918 42.0023 18.1078C41.6183 17.6998 41.0903 17.3878 40.4183 17.1718C39.7463 16.9558 39.0023 16.8598 38.1863 16.8838C37.3703 16.8838 36.7343 17.0638 36.2783 17.4238C35.8223 17.7838 35.5103 18.2038 35.3423 18.6838C35.1743 19.1398 35.1023 19.5478 35.1263 19.9078C35.1983 20.4118 35.5823 20.8918 36.2783 21.3478C36.9743 21.7798 37.9703 21.9838 39.2663 21.9598ZM67.7139 22.1038C68.0499 22.0558 68.4699 21.9958 68.9739 21.9238C69.5019 21.8518 69.9939 21.7678 70.4499 21.6718C70.9299 21.5518 71.2539 21.4198 71.4219 21.2758C71.7339 21.5398 71.9379 22.0798 72.0339 22.8958C72.1539 23.6878 72.1179 24.5158 71.9259 25.3798C71.7819 26.1238 71.5299 26.8198 71.1699 27.4678C70.8099 28.1158 70.2939 28.5118 69.6219 28.6558C69.0459 28.7758 68.3859 28.8478 67.6419 28.8718C66.8979 28.8958 66.1419 28.8958 65.3739 28.8718C64.6059 28.8478 63.8979 28.8238 63.2499 28.7998C62.6259 28.7758 62.1459 28.7638 61.8099 28.7638C61.4739 28.7638 60.9459 28.7638 60.2259 28.7638C59.5299 28.7878 58.9179 28.8118 58.3899 28.8358C57.7659 28.9078 57.0819 28.9558 56.3379 28.9798C55.5939 29.0038 54.9099 28.9798 54.2859 28.9078C53.6619 28.8358 53.2059 28.7158 52.9179 28.5478C53.0859 28.2118 53.2299 27.7078 53.3499 27.0358C53.4699 26.3398 53.5659 25.5838 53.6379 24.7678C53.7099 23.9518 53.7339 23.1718 53.7099 22.4278L53.6379 15.8398V12.7798C53.6379 11.9158 53.6259 11.1958 53.6019 10.6198C53.6019 10.0438 53.6019 9.73176 53.6019 9.68376C53.6019 8.89176 53.5659 8.03976 53.4939 7.12776C53.4219 6.21576 53.3379 5.35176 53.2419 4.53576C53.1459 3.69576 53.0619 3.01176 52.9899 2.48376C52.8939 2.07576 52.8219 1.67976 52.7739 1.29576C52.7259 0.887761 52.7139 0.527761 52.7379 0.215761C52.9059 0.28776 53.3619 0.35976 54.1059 0.43176C54.8739 0.47976 55.7619 0.52776 56.7699 0.575761C56.8419 0.575761 57.1899 0.58776 57.8139 0.61176C58.4379 0.61176 59.2059 0.62376 60.1179 0.64776C61.0539 0.671761 62.0139 0.695761 62.9979 0.719761C64.0059 0.719761 64.9179 0.719761 65.7339 0.719761C66.5499 0.719761 67.1499 0.707761 67.5339 0.683761C68.5179 0.635761 69.3459 0.56376 70.0179 0.46776C70.7139 0.34776 71.1819 0.19176 71.4219 -0.000240564C71.7099 0.239761 71.9739 0.695761 72.2139 1.36776C72.4779 2.01576 72.6219 2.69976 72.6459 3.41976C72.6459 4.11576 72.4779 4.77576 72.1419 5.39976C71.8299 5.99976 71.2539 6.40776 70.4139 6.62376C70.1019 6.69576 69.6099 6.75576 68.9379 6.80376C68.2899 6.85176 67.6539 6.88776 67.0299 6.91176C66.4299 6.91176 65.9979 6.89976 65.7339 6.87576C64.9899 6.80376 64.2219 6.88776 63.4299 7.12776C62.6379 7.34376 61.9659 7.64376 61.4139 8.02776C60.8619 8.38776 60.5739 8.78376 60.5499 9.21576C60.5259 9.62376 60.6939 9.95976 61.0539 10.2238C61.4139 10.4878 61.8819 10.7038 62.4579 10.8718C63.0579 11.0158 63.6939 11.1118 64.3659 11.1598C65.0379 11.2078 65.6739 11.2198 66.2739 11.1958C66.7539 11.1478 67.3059 11.0638 67.9299 10.9438C68.5539 10.8238 68.9379 10.7038 69.0819 10.5838C69.3939 10.8478 69.6099 11.3398 69.7299 12.0598C69.8739 12.7798 69.8739 13.5238 69.7299 14.2918C69.6099 14.9158 69.3699 15.4918 69.0099 16.0198C68.6499 16.5478 68.1459 16.9078 67.4979 17.0998C66.9939 17.2438 66.5619 17.3398 66.2019 17.3878C65.8419 17.4118 65.6619 17.4238 65.6619 17.4238C64.2459 17.4238 63.0459 17.6758 62.0619 18.1798C61.1019 18.6598 60.5739 19.2358 60.4779 19.9078C60.3819 20.4838 60.5019 21.0118 60.8379 21.4918C61.1979 21.9718 61.7139 22.2358 62.3859 22.2838C62.8419 22.3078 63.4179 22.3198 64.1139 22.3198C64.8339 22.2958 65.5299 22.2718 66.2019 22.2478C66.8979 22.1998 67.4019 22.1518 67.7139 22.1038Z" fill="white"/>
<path d="M98.8471 9.46776C98.9671 10.1878 99.0511 10.9678 99.0991 11.8078C99.1711 12.6478 99.1711 13.6678 99.0991 14.8678C99.0271 16.0438 98.8591 17.4958 98.5951 19.2238C98.2351 21.5518 97.2871 23.5078 95.7511 25.0918C94.2151 26.6518 92.2831 27.6718 89.9551 28.1518C89.3071 28.2958 88.5511 28.4038 87.6871 28.4758C86.8231 28.5238 85.9591 28.5718 85.0951 28.6198C84.2551 28.6438 83.4991 28.6798 82.8271 28.7278C82.2271 28.8478 81.5071 28.9318 80.6671 28.9798C79.8271 29.0278 79.0351 29.0158 78.2911 28.9438C77.5471 28.8718 77.0071 28.7398 76.6711 28.5478C76.8631 28.2118 77.0191 27.7078 77.1391 27.0358C77.2591 26.3398 77.3551 25.5838 77.4271 24.7678C77.4991 23.9518 77.5231 23.1718 77.4991 22.4278L77.3911 10.2238C77.3911 9.23976 77.3791 8.33976 77.3551 7.52376C77.3551 6.70776 77.3311 6.07176 77.2831 5.61576C77.2351 5.11176 77.0431 4.66776 76.7071 4.28376C76.3951 3.89976 76.1671 3.51576 76.0231 3.13176C75.6391 2.07576 75.4711 1.04376 75.5191 0.0357611C75.6391 0.0597608 75.9031 0.0957603 76.3111 0.14376C76.7431 0.167761 77.2351 0.203761 77.7871 0.25176C78.3871 0.27576 79.3231 0.31176 80.5951 0.359761C81.8911 0.407761 83.2111 0.45576 84.5551 0.503759C84.5551 0.503759 84.7471 0.51576 85.1311 0.539761C85.5391 0.539761 86.0431 0.563761 86.6431 0.61176C87.2431 0.659761 87.8671 0.731761 88.5151 0.82776C89.1631 0.89976 89.7271 0.99576 90.2071 1.11576C91.7671 1.52376 93.0751 2.08776 94.1311 2.80776C95.2111 3.50376 96.0751 4.25976 96.7231 5.07576C97.3951 5.89176 97.8991 6.69576 98.2351 7.48776C98.5711 8.25576 98.7751 8.91576 98.8471 9.46776ZM86.2831 21.8158C87.2671 21.5758 88.1911 21.1078 89.0551 20.4118C89.9431 19.6918 90.6391 18.7318 91.1431 17.5318C91.6711 16.3078 91.8631 14.8198 91.7191 13.0678C91.5511 10.7878 90.9511 9.20376 89.9191 8.31576C88.9111 7.42776 87.5911 6.97176 85.9591 6.94776C85.5031 6.92376 85.1431 7.22376 84.8791 7.84776C84.6151 8.47176 84.4351 9.47976 84.3391 10.8718C84.2911 11.7838 84.2551 12.4678 84.2311 12.9238C84.2071 13.3558 84.1951 13.7158 84.1951 14.0038C84.2191 14.2918 84.2191 14.6638 84.1951 15.1198C84.1951 15.1198 84.1951 15.3358 84.1951 15.7678C84.2191 16.1998 84.2551 16.7398 84.3031 17.3878C84.3511 18.0118 84.4111 18.6598 84.4831 19.3318C84.5551 19.9798 84.6391 20.5318 84.7351 20.9878C84.8551 21.4918 85.0831 21.7798 85.4191 21.8518C85.7551 21.8998 86.0431 21.8878 86.2831 21.8158ZM105.23 28.9798C104.198 28.7878 103.466 28.0918 103.034 26.8918C102.626 25.6918 102.422 24.2038 102.422 22.4278C102.422 22.2118 102.41 21.6718 102.386 20.8078C102.386 19.9438 102.374 18.8758 102.35 17.6038C102.35 16.3078 102.338 14.9158 102.314 13.4278C102.314 11.9398 102.302 10.4518 102.278 8.96376C102.254 7.47576 102.23 6.10776 102.206 4.85976C102.182 3.58776 102.158 2.54376 102.134 1.72776C102.11 0.91176 102.086 0.41976 102.062 0.25176C102.422 0.17976 102.974 0.16776 103.718 0.215761C104.486 0.239761 105.278 0.359761 106.094 0.575761C106.934 0.767761 107.666 1.10376 108.29 1.58376C108.914 2.03976 109.274 2.67576 109.37 3.49176C109.418 3.87576 109.454 4.53576 109.478 5.47176C109.502 6.38376 109.514 7.47576 109.514 8.74776C109.538 9.99576 109.55 11.3278 109.55 12.7438C109.55 14.1598 109.55 15.5638 109.55 16.9558C109.55 18.3238 109.55 19.5958 109.55 20.7718C109.55 21.9238 109.55 22.8958 109.55 23.6878C109.574 24.4558 109.598 24.9238 109.622 25.0918C109.67 25.5958 109.766 25.9678 109.91 26.2078C110.054 26.4238 110.21 26.6998 110.378 27.0358C109.778 27.6838 109.034 28.2118 108.146 28.6198C107.258 29.0278 106.286 29.1478 105.23 28.9798ZM136.93 3.49176C136.978 3.89976 137.002 4.59576 137.002 5.57976C137.026 6.53976 137.038 7.69176 137.038 9.03576C137.038 10.3798 137.038 11.7958 137.038 13.2838C137.038 14.7718 137.026 16.2478 137.002 17.7118C137.002 19.1758 136.99 20.5078 136.966 21.7078C136.966 22.9078 136.966 23.8918 136.966 24.6598C136.966 25.4038 136.978 25.8238 137.002 25.9198C137.05 26.1118 137.014 26.4238 136.894 26.8558C136.774 27.2638 136.582 27.6598 136.318 28.0438C136.054 28.4038 135.718 28.6198 135.31 28.6918C134.926 28.7878 134.386 28.7878 133.69 28.6918C133.018 28.6198 132.334 28.4398 131.638 28.1518C130.966 27.8398 130.426 27.3958 130.018 26.8198C129.778 26.4838 129.406 26.0038 128.902 25.3798C128.422 24.7318 127.882 24.0358 127.282 23.2918C126.706 22.5238 126.13 21.7918 125.554 21.0958C125.002 20.3758 124.534 19.7638 124.15 19.2598C123.766 18.7318 123.526 18.4078 123.43 18.2878C123.214 17.9518 122.854 17.6158 122.35 17.2798C121.87 16.9198 121.486 16.7878 121.198 16.8838C120.91 16.9798 120.694 17.2798 120.55 17.7838C120.406 18.2638 120.31 18.7798 120.262 19.3318C120.214 19.6918 120.19 20.2438 120.19 20.9878C120.19 21.7078 120.19 22.4518 120.19 23.2198C120.214 23.9878 120.214 24.6118 120.19 25.0918C120.166 25.9318 120.43 26.7358 120.982 27.5038C120.79 27.6238 120.406 27.8158 119.83 28.0798C119.254 28.3198 118.642 28.5358 117.994 28.7278C117.346 28.9198 116.794 29.0038 116.338 28.9798C115.57 28.9318 114.886 28.5358 114.286 27.7918C113.71 27.0478 113.41 26.1238 113.386 25.0198C113.386 24.8038 113.374 24.2038 113.35 23.2198C113.35 22.2118 113.338 20.9638 113.314 19.4758C113.314 17.9878 113.314 16.3798 113.314 14.6518C113.314 12.9238 113.302 11.2198 113.278 9.53976C113.278 7.83576 113.266 6.28776 113.242 4.89576C113.242 3.47976 113.242 2.35176 113.242 1.51176C113.242 0.671761 113.242 0.25176 113.242 0.25176C114.706 0.203761 115.942 0.311761 116.95 0.575761C117.958 0.83976 118.798 1.31976 119.47 2.01576C119.758 2.27976 120.178 2.74776 120.73 3.41976C121.282 4.09176 121.882 4.85976 122.53 5.72376C123.202 6.56376 123.85 7.40376 124.474 8.24376C125.122 9.08376 125.686 9.82776 126.166 10.4758C126.646 11.0998 126.958 11.5078 127.102 11.6998C127.486 12.1798 127.87 12.5638 128.254 12.8518C128.662 13.1158 128.998 13.1998 129.262 13.1038C129.838 12.9118 130.126 12.1078 130.126 10.6918L130.054 0.25176C130.318 0.203761 130.774 0.191761 131.422 0.215761C132.094 0.239761 132.802 0.347761 133.546 0.539761C134.362 0.73176 135.106 1.05576 135.778 1.51176C136.45 1.96776 136.834 2.62776 136.93 3.49176Z" fill="#F8BC17"/>
</svg>
